<svg xmlns="http://www.w3.org/2000/svg" width="127.629" height="76.266" viewBox="0 0 127.629 76.266">
  <g id="Group_3967" data-name="Group 3967" transform="translate(-1561 -778)">
    <path id="Path_8134" data-name="Path 8134" d="M0,0H104.129V67.511H0Z" transform="translate(1561 778)" fill="#e3e3e3"/>
    <g id="Group_3891" data-name="Group 3891" transform="translate(1574.448 793.386)">
      <g id="Group_3888" data-name="Group 3888" transform="translate(0 0)">
        <g id="Image_168" data-name="Image 168" transform="translate(0 0)">
          <g id="Group_3887" data-name="Group 3887" transform="translate(0.39 3.149)">
            <path id="Path_8126" data-name="Path 8126" d="M55.175,60.567A3.877,3.877,0,1,0,51.3,64.445a3.877,3.877,0,0,0,3.877-3.877" transform="translate(-47.42 -56.69)" fill="none"/>
            <path id="Path_8127" data-name="Path 8127" d="M114.98,208.98h7.5" transform="translate(-104.332 -184.977)" fill="none"/>
            <path id="Path_8128" data-name="Path 8128" d="M81.336,116.054H94.949a.1.1,0,0,0,.082-.147L84.56,98.717a.1.1,0,0,0-.173,0l-6.533,10.716a.107.107,0,0,1-.184,0L73.9,103.045a.078.078,0,0,0-.068-.039.081.081,0,0,0-.069.039l-7.614,12.9a.079.079,0,0,0,.068.118l7.619,0" transform="translate(-63.192 -92.051)" fill="none"/>
            <path id="Path_8129" data-name="Path 8129" d="M122.476,174.982l.069-.03a.124.124,0,0,0,.069-.075.121.121,0,0,0-.011-.1l-3.6-6.1a.119.119,0,0,0-.1-.058.116.116,0,0,0-.1.057l-3.825,6.3" transform="translate(-104.332 -150.98)" fill="none"/>
          </g>
          <circle id="Ellipse_68" data-name="Ellipse 68" cx="3.877" cy="3.877" r="3.877" transform="translate(0.39)" fill="#adadad"/>
          <path id="Path_8131" data-name="Path 8131" d="M83.093,118.064l.077-.033a.138.138,0,0,0,.077-.083.134.134,0,0,0-.012-.112l-4.013-6.8a.133.133,0,0,0-.113-.065.129.129,0,0,0-.112.063l-4.268,7.033-8.5.005a.088.088,0,0,1-.076-.132l8.495-14.386a.091.091,0,0,1,.077-.044.087.087,0,0,1,.076.044l4.2,7.125a.12.12,0,0,0,.206,0L86.5,98.722a.113.113,0,0,1,.193,0L98.371,117.9a.107.107,0,0,1-.091.164Z" transform="translate(-66.143 -90.912)" fill="#adadad"/>
          <path id="Path_8132" data-name="Path 8132" d="M123.343,175.718H114.98l4.268-7.033a.129.129,0,0,1,.112-.063.133.133,0,0,1,.113.065l4.013,6.8a.134.134,0,0,1,.012.112.138.138,0,0,1-.077.083Z" transform="translate(-106.392 -148.565)" fill="#7e7e7e"/>
        </g>
      </g>
    </g>
    <rect id="Rectangle_2239" data-name="Rectangle 2239" width="74" height="48" transform="translate(1614.629 806.266)" fill="#f8f8f8"/>
    <rect id="Rectangle_2248" data-name="Rectangle 2248" width="33.983" height="7.107" rx="1" transform="translate(1623.999 813.436)" fill="#ddd"/>
    <rect id="Rectangle_2249" data-name="Rectangle 2249" width="44.426" height="5.528" rx="1" transform="translate(1624.001 827.228)" fill="#c7c7c7"/>
    <rect id="Rectangle_2250" data-name="Rectangle 2250" width="44.426" height="5.528" rx="1" transform="translate(1624.001 838.44)" fill="#bababa"/>
  </g>
</svg>
