<svg xmlns="http://www.w3.org/2000/svg" width="90.288" height="75.554" viewBox="0 0 90.288 75.554">
  <g id="Group_4138" data-name="Group 4138" transform="translate(-1806.356 -832.17)">
    <g id="Group_3978" data-name="Group 3978" transform="translate(2.848 12)">
      <g id="Group_3926" data-name="Group 3926" transform="translate(233.759 -156.568)">
        <path id="Path_8134" data-name="Path 8134" d="M0,0H33.216V31.554H0Z" transform="translate(1569.75 976.738)" fill="#e3e3e3"/>
        <g id="Group_3891" data-name="Group 3891" transform="translate(1575.702 983.541)">
          <g id="Group_3888" data-name="Group 3888" transform="translate(0 0)">
            <g id="Image_168" data-name="Image 168">
              <g id="Group_3887" data-name="Group 3887" transform="translate(0.258 2.081)">
                <path id="Path_8126" data-name="Path 8126" d="M52.545,59.253a2.563,2.563,0,1,0-2.563,2.563,2.563,2.563,0,0,0,2.563-2.563" transform="translate(-47.42 -56.69)" fill="none"/>
                <path id="Path_8127" data-name="Path 8127" d="M114.98,208.98h4.954" transform="translate(-107.942 -193.116)" fill="none"/>
                <path id="Path_8128" data-name="Path 8128" d="M76.185,110.159h9a.064.064,0,0,0,.054-.1L78.315,98.7a.067.067,0,0,0-.115,0l-4.318,7.083a.071.071,0,0,1-.122,0l-2.488-4.221a.051.051,0,0,0-.045-.026.054.054,0,0,0-.046.026l-5.032,8.523a.052.052,0,0,0,.045.078l5.036,0" transform="translate(-64.193 -94.294)" fill="none"/>
                <path id="Path_8129" data-name="Path 8129" d="M119.934,172.825l.046-.02a.082.082,0,0,0,.046-.049.08.08,0,0,0-.007-.066l-2.377-4.03a.079.079,0,0,0-.067-.038.076.076,0,0,0-.066.037l-2.528,4.167" transform="translate(-107.942 -156.961)" fill="none"/>
              </g>
              <circle id="Ellipse_68" data-name="Ellipse 68" cx="2.563" cy="2.563" r="2.563" transform="translate(0.258)" fill="#adadad"/>
              <path id="Path_8131" data-name="Path 8131" d="M77.346,111.487l.051-.022a.091.091,0,0,0,.051-.055.089.089,0,0,0-.008-.074l-2.652-4.5a.088.088,0,0,0-.075-.043.085.085,0,0,0-.074.042l-2.82,4.648-5.618,0a.058.058,0,0,1-.05-.087l5.614-9.508a.06.06,0,0,1,.051-.029.057.057,0,0,1,.05.029l2.775,4.709a.079.079,0,0,0,.136,0l4.817-7.9a.074.074,0,0,1,.128,0l7.721,12.675a.071.071,0,0,1-.06.108Z" transform="translate(-66.143 -93.542)" fill="#adadad"/>
              <path id="Path_8132" data-name="Path 8132" d="M120.507,173.311H114.98l2.821-4.648a.085.085,0,0,1,.074-.042.088.088,0,0,1,.075.043l2.652,4.5a.089.089,0,0,1,.008.074.091.091,0,0,1-.051.055Z" transform="translate(-109.304 -155.366)" fill="#7e7e7e"/>
            </g>
          </g>
        </g>
      </g>
      <rect id="Rectangle_2245" data-name="Rectangle 2245" width="31.983" height="7.107" rx="1" transform="translate(1849.369 820.17)" fill="#ddd"/>
      <rect id="Rectangle_2246" data-name="Rectangle 2246" width="44.426" height="5.528" rx="1" transform="translate(1849.371 833.962)" fill="#c7c7c7"/>
      <rect id="Rectangle_2247" data-name="Rectangle 2247" width="44.426" height="5.528" rx="1" transform="translate(1849.371 845.175)" fill="#bababa"/>
    </g>
    <g id="Group_3981" data-name="Group 3981" transform="translate(2.848 56)">
      <g id="Group_3926-2" data-name="Group 3926" transform="translate(233.759 -156.568)">
        <path id="Path_8134-2" data-name="Path 8134" d="M0,0H33.216V31.554H0Z" transform="translate(1569.75 976.738)" fill="#e3e3e3"/>
        <g id="Group_3891-2" data-name="Group 3891" transform="translate(1575.702 983.541)">
          <g id="Group_3888-2" data-name="Group 3888" transform="translate(0 0)">
            <g id="Image_168-2" data-name="Image 168">
              <g id="Group_3887-2" data-name="Group 3887" transform="translate(0.258 2.081)">
                <path id="Path_8126-2" data-name="Path 8126" d="M52.545,59.253a2.563,2.563,0,1,0-2.563,2.563,2.563,2.563,0,0,0,2.563-2.563" transform="translate(-47.42 -56.69)" fill="none"/>
                <path id="Path_8127-2" data-name="Path 8127" d="M114.98,208.98h4.954" transform="translate(-107.942 -193.116)" fill="none"/>
                <path id="Path_8128-2" data-name="Path 8128" d="M76.185,110.159h9a.064.064,0,0,0,.054-.1L78.315,98.7a.067.067,0,0,0-.115,0l-4.318,7.083a.071.071,0,0,1-.122,0l-2.488-4.221a.051.051,0,0,0-.045-.026.054.054,0,0,0-.046.026l-5.032,8.523a.052.052,0,0,0,.045.078l5.036,0" transform="translate(-64.193 -94.294)" fill="none"/>
                <path id="Path_8129-2" data-name="Path 8129" d="M119.934,172.825l.046-.02a.082.082,0,0,0,.046-.049.08.08,0,0,0-.007-.066l-2.377-4.03a.079.079,0,0,0-.067-.038.076.076,0,0,0-.066.037l-2.528,4.167" transform="translate(-107.942 -156.961)" fill="none"/>
              </g>
              <circle id="Ellipse_68-2" data-name="Ellipse 68" cx="2.563" cy="2.563" r="2.563" transform="translate(0.258)" fill="#adadad"/>
              <path id="Path_8131-2" data-name="Path 8131" d="M77.346,111.487l.051-.022a.091.091,0,0,0,.051-.055.089.089,0,0,0-.008-.074l-2.652-4.5a.088.088,0,0,0-.075-.043.085.085,0,0,0-.074.042l-2.82,4.648-5.618,0a.058.058,0,0,1-.05-.087l5.614-9.508a.06.06,0,0,1,.051-.029.057.057,0,0,1,.05.029l2.775,4.709a.079.079,0,0,0,.136,0l4.817-7.9a.074.074,0,0,1,.128,0l7.721,12.675a.071.071,0,0,1-.06.108Z" transform="translate(-66.143 -93.542)" fill="#adadad"/>
              <path id="Path_8132-2" data-name="Path 8132" d="M120.507,173.311H114.98l2.821-4.648a.085.085,0,0,1,.074-.042.088.088,0,0,1,.075.043l2.652,4.5a.089.089,0,0,1,.008.074.091.091,0,0,1-.051.055Z" transform="translate(-109.304 -155.366)" fill="#7e7e7e"/>
            </g>
          </g>
        </g>
      </g>
      <rect id="Rectangle_2245-2" data-name="Rectangle 2245" width="31.983" height="7.107" rx="1" transform="translate(1849.369 820.17)" fill="#ddd"/>
      <rect id="Rectangle_2246-2" data-name="Rectangle 2246" width="44.426" height="5.528" rx="1" transform="translate(1849.371 833.962)" fill="#c7c7c7"/>
      <rect id="Rectangle_2247-2" data-name="Rectangle 2247" width="44.426" height="5.528" rx="1" transform="translate(1849.371 845.175)" fill="#bababa"/>
    </g>
  </g>
</svg>
